<svg width="253" height="68" viewBox="0 0 253 68" fill="none" xmlns="http://www.w3.org/2000/svg">
<path d="M77.1213 8.21822C79.3548 8.21822 80.826 8.21822 81.2005 8.21822C82.5158 8.12447 83.7448 7.6126 84.651 6.78149C85.1593 6.3297 85.3064 5.87811 85.0656 5.53058C84.651 4.93977 83.5677 5.22921 83.1397 5.35664C80.584 5.66704 78.0019 5.78338 75.4227 5.70423C71.5174 5.70423 66.1677 5.84334 58.5309 6.0982L56.5783 6.15618C50.4395 6.34153 43.5249 6.54993 36.8377 6.90904C37.0517 5.99388 37.239 5.25248 37.4262 4.59218C37.9077 2.86611 38.3357 2.40274 39.1515 1.9857C39.3466 1.88322 39.5049 1.7357 39.6089 1.55977C39.7128 1.38384 39.7582 1.18631 39.74 0.989322C39.706 0.785716 39.61 0.593853 39.462 0.433013C39.3139 0.272173 39.119 0.148397 38.8974 0.0743963C38.5623 -0.0195889 38.2023 -0.0246683 37.8639 0.0599724C37.5254 0.144613 37.224 0.315002 36.9982 0.549252C36.3028 1.15164 35.3666 1.96243 33.9221 7.09429C27.2598 7.41607 20.637 8.19074 14.1147 9.41116C3.01404 11.728 0.860766 12.9907 0.205423 14.0449C0.0702026 14.2889 0 14.5562 0 14.8269C0 15.0976 0.0702026 15.3649 0.205423 15.6089C0.303717 15.8713 0.497668 16.0989 0.758133 16.2577C1.0186 16.4164 1.33151 16.4978 1.64985 16.4893C1.93072 16.4893 2.6128 16.2691 2.82679 15.2033C2.82679 14.9948 3.69613 13.1297 20.6013 10.8592C24.0118 10.3958 28.1578 10.0599 33.2802 9.70077C32.0497 14.5662 30.6989 21.0998 29.2679 29.1277C25.3626 50.7094 23.129 64.4484 23.129 66.8232C23.129 67.7731 23.6373 67.9817 23.9449 67.9817C25.0817 67.9817 26.1918 65.5374 26.3656 63.9387C26.4726 63.1626 26.9675 60.4635 27.7031 56.7217C29.0405 49.1108 31.2205 37.6192 32.5312 29.0121C33.5744 21.9456 34.8049 15.412 36.1958 9.5851C42.3614 9.17964 49.4498 8.91311 58.1698 8.6235C65.0844 8.34548 72.5874 8.26456 77.1213 8.21822Z" fill="#FFA17A"/>
<path d="M134.27 36.6113C133.842 36.368 133.254 36.4494 132.077 36.8896C130.782 37.2567 129.427 37.4367 128.064 37.4224C127.392 37.3545 126.734 37.2022 126.112 36.9705C125.327 36.6738 124.491 36.4937 123.637 36.4376C122.153 36.4376 119.17 38.129 116.362 40.5501C115.511 41.3219 114.716 42.138 113.981 42.9943C114.088 42.5541 114.249 41.998 114.463 41.2798C114.752 40.1828 115.122 39.1034 115.573 38.048C115.804 37.6356 115.931 37.1854 115.947 36.7272C115.947 36.5419 115.773 36.1134 114.984 35.9744C114.494 35.8803 113.984 35.9076 113.51 36.053C113.037 36.1985 112.621 36.4562 112.309 36.7968C112.262 36.8779 112.226 36.9634 112.202 37.0516C109.956 38.129 107.04 39.7393 103.964 41.4422C96.7417 45.4272 87.7675 50.3852 83.7819 50.3852C83.6829 50.3933 83.5831 50.3795 83.4918 50.3451C83.4006 50.3106 83.321 50.2567 83.2603 50.1884C83.0998 50.003 82.7789 49.4005 83.2603 47.6744C84.0685 45.2297 85.097 42.8438 86.3364 40.5385L86.6842 39.8782C87.393 38.5923 87.6873 38.0478 87.4064 37.5613C87.3337 37.4408 87.2334 37.3344 87.1115 37.2488C86.9896 37.1631 86.8487 37.1 86.6976 37.0632L86.8447 36.8084L86.6039 37.04H86.4836C85.2397 36.8084 83.8756 38.1058 81.4013 40.5154C80.8797 41.0135 80.3314 41.5465 79.7295 42.1025C77.8437 43.8865 73.6709 46.7362 72.6144 46.8983C72.4961 46.5702 72.4961 46.2185 72.6144 45.8904C73.0131 44.6563 73.546 43.4579 74.2059 42.311C74.7758 41.425 75.4528 40.5938 76.2254 39.8318C76.9477 39.0788 77.3756 38.6734 77.3756 38.1869C77.3731 38.0042 77.328 37.8238 77.243 37.6566C77.1579 37.4894 77.0347 37.3386 76.8808 37.2137C76.7268 37.0896 76.5412 36.9987 76.339 36.9484C76.1368 36.8981 75.9238 36.8897 75.7172 36.9241C75.5104 36.9694 75.3153 37.0482 75.1421 37.156C70.2754 38.5863 65.2582 39.5988 60.1629 40.1794C60.0357 40.208 59.9059 40.2274 59.775 40.2373C59.668 35.6036 57.1938 32.6611 53.3954 32.6611C52.4041 32.6685 51.4307 32.8908 50.564 33.3077C49.6973 33.7245 48.9649 34.3227 48.4336 35.0476C47.9615 35.658 47.679 36.3635 47.6134 37.096C47.5478 37.8286 47.7013 38.5632 48.0591 39.2294C48.2589 39.6245 48.545 39.9826 48.9017 40.2837C48.1446 41.1803 47.4821 42.1341 46.9223 43.1334C44.662 46.9563 44.2474 51.034 45.8122 53.3045C46.1106 53.7688 46.547 54.1553 47.0762 54.4242C47.6053 54.6931 48.2079 54.8347 48.8214 54.8337C53.0076 54.8337 58.7051 49.1804 59.6413 42.4962L60.1227 42.4267C64.4426 41.8858 68.6957 41.002 72.8284 39.7857C72.5207 40.2722 72.2399 40.7587 72.0259 41.1641C71.064 42.7975 70.4093 44.5534 70.0866 46.3655C69.9936 46.7822 70.0001 47.211 70.1059 47.6255C70.2118 48.0399 70.4146 48.431 70.7018 48.7749C70.9088 48.9558 71.1576 49.0971 71.4318 49.1889C71.7061 49.2807 71.9997 49.3213 72.2934 49.308C74.1123 49.308 78.9806 45.8327 81.6554 43.5158C81.8828 43.3073 82.0968 43.1219 82.2974 42.925C81.6404 44.3766 81.1041 45.8669 80.6925 47.3848C80.1174 49.5395 80.2378 51.0225 81.0803 51.9376C81.4079 52.267 81.8215 52.5239 82.2867 52.6871C82.7519 52.8503 83.2553 52.9148 83.7552 52.8758C89.3591 52.8758 100.928 46.1339 109.38 41.1989L111.667 39.8666C111.253 41.8591 110.811 44.3499 110.678 45.8327C110.58 46.66 110.549 47.4921 110.584 48.3232V48.4968C110.657 48.81 110.836 49.0973 111.098 49.3221C111.36 49.547 111.693 49.6993 112.055 49.7596C112.657 49.7596 112.858 49.3425 113.526 47.9524L113.727 47.5471C114.725 45.6859 116.082 43.9855 117.739 42.5194C119.381 41.0204 121.432 39.9047 123.704 39.2757C124.004 39.2962 124.301 39.3469 124.587 39.4265C125.609 39.6581 126.661 39.7749 127.717 39.7741C130.392 39.7741 134.752 38.2912 134.752 37.376C134.773 37.2211 134.738 37.0642 134.651 36.9272C134.565 36.7902 134.432 36.6798 134.27 36.6113ZM56.6989 42.4035C55.8028 48.1956 51.7236 52.4821 48.5004 52.4821C48.3934 52.4821 48.2463 52.3662 48.1126 52.1809C47.377 51.1383 47.1229 47.9294 49.5838 43.7822C50.0814 43.0062 50.6307 42.2556 51.2288 41.5346C52.9606 42.1043 54.7932 42.4101 56.6454 42.4383L56.6989 42.4035ZM53.81 38.7777C54.3851 38.2332 54.559 38.071 54.559 37.8161C54.5547 37.6722 54.5156 37.5309 54.4444 37.4009C54.3731 37.2709 54.2712 37.1551 54.1452 37.0613C54.0192 36.9674 53.872 36.8975 53.7129 36.8559C53.5538 36.8144 53.3864 36.8022 53.2216 36.82C52.6598 36.82 51.5498 37.6426 50.7339 38.3376C50.6582 38.2398 50.5954 38.1348 50.5467 38.0248C50.3478 37.6966 50.2528 37.3284 50.2716 36.958C50.2904 36.5877 50.4223 36.2283 50.6537 35.9164C50.9247 35.5596 51.294 35.2668 51.7283 35.0645C52.1626 34.8623 52.6482 34.757 53.1413 34.758C54.9602 34.758 56.9129 36.3797 56.9129 39.9361V40.1446C55.5513 40.1298 54.1995 39.9425 52.9006 39.5885C53.2349 39.2989 53.5158 39.0326 53.7565 38.7777H53.81Z" fill="#FFA17A"/>
<path d="M142.215 32.6376C142.321 32.6551 142.43 32.6551 142.536 32.6376C142.711 32.6321 142.884 32.5968 143.044 32.5335C143.785 32.1824 144.365 31.6223 144.689 30.9463C144.767 30.7131 144.79 30.4687 144.756 30.2277C144.721 29.9866 144.63 29.7542 144.488 29.5446C144.366 29.3324 144.193 29.1452 143.981 28.9954C143.769 28.8456 143.522 28.7366 143.258 28.6758C142.348 28.5368 141.533 29.5911 141.319 30.2166C141.199 30.6272 141.199 31.057 141.319 31.4675C141.466 31.9425 141.72 32.487 142.215 32.6376Z" fill="#FFA17A"/>
<path d="M175.85 35.8002C175.861 35.6747 175.83 35.5493 175.761 35.4384C175.693 35.3276 175.589 35.236 175.462 35.1746C175.133 35.0129 174.765 34.9186 174.388 34.8985C174.01 34.8785 173.632 34.9333 173.282 35.0589C169.874 36.3747 166.677 38.0684 163.773 40.0979C163.171 38.8236 162.569 37.642 162.021 36.6226C161.391 35.4973 160.85 34.3362 160.403 33.1473C160.095 32.1511 160.911 30.8306 162.81 29.2088L163.024 29.0235C163.369 28.8828 163.696 28.7118 164 28.5136C164.275 28.3898 164.494 28.1912 164.625 27.9482C164.756 27.7052 164.79 27.4315 164.723 27.1699C164.562 26.7992 164.081 26.3705 162.623 26.4863C161.223 26.8069 159.982 27.5122 159.085 28.496C158.188 29.4799 157.683 30.6895 157.648 31.9428C152.953 36.4838 144.567 43.11 140.261 43.11C140.128 42.8934 140.086 42.6437 140.141 42.4032C140.361 41.031 140.897 39.7114 141.719 38.5226C141.872 38.3216 141.954 38.086 141.954 37.845C141.954 37.604 141.872 37.3683 141.719 37.1673C141.585 37.0239 141.408 36.916 141.206 36.8565C141.005 36.797 140.789 36.7884 140.582 36.8313C139.963 36.8986 139.383 37.131 138.923 37.4963C138.463 37.8615 138.145 38.3417 138.014 38.8702C137.569 40.0387 137.312 41.2549 137.252 42.4844C137.222 42.8622 137.286 43.2413 137.44 43.5959C137.593 43.9504 137.833 44.2724 138.142 44.5402C138.451 44.808 138.823 45.0153 139.232 45.1483C139.641 45.2812 140.079 45.3366 140.515 45.3109C145.33 45.3109 152.766 39.901 157.982 34.3058C158.59 36.0897 159.35 37.8321 160.256 39.5187C160.617 40.2485 160.991 41.0133 161.352 41.7779C159.46 43.2247 157.673 44.7722 156.002 46.4116C149.77 52.4007 147.149 58.1117 148.994 61.6913C149.46 62.5643 150.221 63.2942 151.176 63.7845C152.132 64.2747 153.236 64.502 154.344 64.4366C159.48 64.4366 166.929 59.6176 166.929 52.053C166.804 48.7268 166.007 45.4454 164.575 42.3571C167.552 40.0261 170.921 38.1002 174.566 36.6458C175.208 36.4605 175.783 36.252 175.85 35.8002ZM162.395 43.9904C163.512 46.2186 164.172 48.598 164.348 51.0222C164.348 57.3704 158.584 62.2937 153.649 62.2937C153.279 62.2763 152.923 62.1649 152.625 61.9733C152.328 61.7817 152.102 61.5184 151.977 61.2164C151.041 59.4209 151.321 54.5323 158.316 47.6048L158.998 46.9676C160.042 45.9714 161.192 44.9403 162.395 43.9904Z" fill="#FFA17A"/>
<path d="M206.01 18.7718C206.094 18.6863 206.155 18.5859 206.189 18.478C206.224 18.37 206.231 18.2568 206.211 18.1462V18.0882C205.916 17.1731 204.873 17.1847 201.155 17.2542C199.818 17.2542 198.106 17.2542 195.926 17.2542C190.87 17.2542 188.543 17.1617 186.844 17.1037C186.055 17.1037 185.4 17.0458 184.651 17.0458C185.532 14.2253 186.59 11.4487 187.821 8.72827V8.6703C187.933 8.40399 188.106 8.15967 188.329 7.95193H188.396C188.891 7.95193 189.185 7.73196 189.332 7.22225C189.45 6.32848 189.204 5.42704 188.637 4.67375C188.54 4.55657 188.414 4.46007 188.268 4.39178C188.122 4.32349 187.96 4.28513 187.794 4.27979C185.962 4.27979 183.474 9.04095 181.107 17.0226L169.939 16.953C167.666 16.953 167.184 16.7561 166.475 16.397C165.766 16.0378 164.322 16.3972 163.573 16.8837C162.824 17.3702 162.771 17.7641 162.851 18.0421C163.266 19.4091 163.827 19.409 178.338 19.3974H180.425C179.89 21.4594 179.368 23.6024 178.873 25.9077C176.869 36.0555 175.578 46.2998 175.008 56.5833C175.008 59.7921 175.182 63.8119 176.493 64.6923C176.688 64.835 176.933 64.9166 177.188 64.9239H177.375C177.56 64.9174 177.74 64.878 177.906 64.8083C178.072 64.7385 178.219 64.6398 178.338 64.5184C178.606 64.194 178.512 63.8118 178.338 63.1747C178.163 62.5439 178.025 61.9058 177.924 61.2631C177.442 57.8573 178.298 47.6862 178.913 43.8866C179.93 36.7854 181.12 30.7036 181.936 26.8229C182.404 24.3207 183.1 21.7722 183.782 19.3742H196.915C202.907 19.5016 205.314 19.4785 206.01 18.7718Z" fill="#FFA17A"/>
<path d="M231.649 36.9006C231.7 36.765 231.707 36.6199 231.67 36.4809C231.632 36.3419 231.551 36.2145 231.435 36.1129C231.074 35.8697 230.739 35.9741 229.616 36.3101C228.167 36.6632 226.638 36.6869 225.175 36.3794C224.296 36.171 223.445 35.8837 222.634 35.5221C221.923 35.1515 221.122 34.9293 220.294 34.8733C218.528 34.8733 215.653 36.2288 213.205 39.2639C212.507 40.0985 211.94 41.0102 211.52 41.9747C211.509 41.2478 211.54 40.5208 211.614 39.7967C211.82 37.9544 212.155 36.1246 212.617 34.3173V34.0973C212.765 33.5285 212.66 32.9324 212.323 32.4278C211.985 31.9232 211.441 31.5474 210.798 31.3751C210.095 31.242 209.359 31.3513 208.748 31.68C208.136 32.0087 207.696 32.5308 207.521 33.1357C202.947 43.3415 196.929 47.9057 192.997 47.9057C192.15 47.8441 191.34 47.5797 190.658 47.1418C189.975 46.704 189.447 46.1101 189.132 45.4268C192.649 44.1641 196.354 41.1058 196.354 38.4066C196.365 38.1056 196.302 37.806 196.169 37.5276C196.036 37.2492 195.837 36.9983 195.584 36.7914C195.332 36.5846 195.031 36.4263 194.703 36.3273C194.374 36.2284 194.025 36.191 193.679 36.2173C190.723 36.2173 186.163 39.5652 186.163 44.0135C186.125 44.8342 186.284 45.6527 186.627 46.4181C186.971 47.1835 187.492 47.8795 188.16 48.4629C188.827 49.0463 189.626 49.5047 190.506 49.8094C191.387 50.1141 192.33 50.2586 193.278 50.2342C200.647 50.2342 207.267 39.1597 209.434 34.4101C208.929 38.2007 208.754 42.019 208.912 45.8324C208.956 46.7596 209.154 47.6764 209.501 48.5545C209.633 48.8188 209.844 49.048 210.112 49.2189C210.38 49.3898 210.695 49.4964 211.025 49.5277H211.119H211.199C211.761 49.3655 211.935 48.8209 212.229 47.0369C212.309 46.782 212.39 46.4811 212.47 46.1568C212.829 44.3148 213.611 42.5538 214.77 40.9783C216.683 38.5224 219.023 37.6538 220.588 37.6538C220.867 37.6951 221.132 37.7901 221.364 37.9318C222.288 38.403 223.319 38.6954 224.386 38.789C226.833 38.8889 229.26 38.3782 231.381 37.3178C231.457 37.2687 231.521 37.2061 231.567 37.1342C231.613 37.0623 231.641 36.9826 231.649 36.9006ZM193.545 38.2678C193.853 38.2678 193.88 38.2678 193.88 38.5574C193.88 39.4841 191.405 42.3339 188.891 43.5271C189.092 40.1097 192.234 38.2678 193.545 38.2678Z" fill="#FFA17A"/>
<path d="M251.456 48.5894C248.634 47.431 241.385 46.1221 235.045 45.8441C236.089 45.2764 237.546 44.5002 240.208 43.1564C244.795 40.8396 247.243 38.5226 246.574 36.9935C246.387 36.588 245.705 35.6961 243.15 36.1594C238.202 37.1094 236.062 37.3757 235.594 36.6227C235.434 36.4075 235.196 36.2442 234.918 36.1583C234.64 36.0724 234.337 36.0688 234.056 36.1478C233.738 36.2123 233.449 36.3567 233.225 36.5627C233.002 36.7688 232.853 37.0274 232.799 37.3063C232.775 37.5868 232.859 37.8663 233.038 38.101C233.217 38.3357 233.481 38.5125 233.788 38.6039C235.968 39.6233 240.261 39.1482 243.578 38.2099H243.832C242.109 39.5816 240.185 40.7501 238.108 41.6852C230.191 45.7513 229.575 46.1684 229.829 47.2573C230.043 48.0103 231.729 48.2071 232.718 48.265C238.813 48.3767 244.864 49.1751 250.72 50.6399C251.076 50.7549 251.451 50.8175 251.83 50.8251C252.05 50.8509 252.274 50.8184 252.473 50.7315C252.671 50.6446 252.834 50.5076 252.94 50.3387C253.301 49.4003 251.924 48.7979 251.456 48.5894Z" fill="#FFA17A"/>
</svg>
